<svg width="80" height="80" viewBox="0 0 80 80" fill="none" xmlns="http://www.w3.org/2000/svg">
<path d="M26.7581 62.0937C26.7581 62.4062 26.3871 62.6562 25.9194 62.6562C25.3871 62.7031 25.0161 62.4531 25.0161 62.0937C25.0161 61.7812 25.3871 61.5312 25.8548 61.5312C26.3387 61.4844 26.7581 61.7344 26.7581 62.0937ZM21.7419 61.3906C21.629 61.7031 21.9516 62.0625 22.4355 62.1562C22.8548 62.3125 23.3387 62.1562 23.4355 61.8437C23.5323 61.5312 23.2258 61.1719 22.7419 61.0313C22.3226 60.9219 21.8548 61.0781 21.7419 61.3906ZM28.871 61.125C28.4032 61.2344 28.0806 61.5313 28.129 61.8906C28.1774 62.2031 28.5968 62.4063 29.0806 62.2969C29.5484 62.1875 29.871 61.8906 29.8226 61.5781C29.7742 61.2813 29.3387 61.0781 28.871 61.125ZM39.4839 1.25C17.1129 1.25 0 17.7031 0 39.375C0 56.7031 11.2581 71.5313 27.3387 76.75C29.4032 77.1094 30.129 75.875 30.129 74.8594C30.129 73.8906 30.0806 68.5469 30.0806 65.2656C30.0806 65.2656 18.7903 67.6094 16.4194 60.6094C16.4194 60.6094 14.5806 56.0625 11.9355 54.8906C11.9355 54.8906 8.24193 52.4375 12.1935 52.4844C12.1935 52.4844 16.2097 52.7969 18.4194 56.5156C21.9516 62.5469 27.871 60.8125 30.1774 59.7813C30.5484 57.2813 31.5968 55.5469 32.7581 54.5156C23.7419 53.5469 14.6452 52.2812 14.6452 37.25C14.6452 32.9531 15.871 30.7969 18.4516 28.0469C18.0323 27.0312 16.6613 22.8437 18.871 17.4375C22.2419 16.4219 30 21.6563 30 21.6563C33.2258 20.7813 36.6935 20.3281 40.129 20.3281C43.5645 20.3281 47.0323 20.7813 50.2581 21.6563C50.2581 21.6563 58.0161 16.4062 61.3871 17.4375C63.5968 22.8594 62.2258 27.0312 61.8065 28.0469C64.3871 30.8125 65.9677 32.9687 65.9677 37.25C65.9677 52.3281 56.4677 53.5312 47.4516 54.5156C48.9355 55.75 50.1935 58.0937 50.1935 61.7656C50.1935 67.0312 50.1452 73.5469 50.1452 74.8281C50.1452 75.8437 50.8871 77.0781 52.9355 76.7188C69.0645 71.5312 80 56.7031 80 39.375C80 17.7031 61.8548 1.25 39.4839 1.25ZM15.6774 55.1406C15.4677 55.2969 15.5161 55.6563 15.7903 55.9531C16.0484 56.2031 16.4194 56.3125 16.629 56.1094C16.8387 55.9531 16.7903 55.5937 16.5161 55.2969C16.2581 55.0469 15.8871 54.9375 15.6774 55.1406ZM13.9355 53.875C13.8226 54.0781 13.9839 54.3281 14.3065 54.4844C14.5645 54.6406 14.8871 54.5937 15 54.375C15.1129 54.1719 14.9516 53.9219 14.629 53.7656C14.3065 53.6719 14.0484 53.7187 13.9355 53.875ZM19.1613 59.4375C18.9032 59.6406 19 60.1094 19.371 60.4063C19.7419 60.7656 20.2097 60.8125 20.4194 60.5625C20.629 60.3594 20.5323 59.8906 20.2097 59.5937C19.8548 59.2344 19.371 59.1875 19.1613 59.4375ZM17.3226 57.1406C17.0645 57.2969 17.0645 57.7031 17.3226 58.0625C17.5806 58.4219 18.0161 58.5781 18.2258 58.4219C18.4839 58.2187 18.4839 57.8125 18.2258 57.4531C18 57.0938 17.5806 56.9375 17.3226 57.1406Z" fill="white"/>
</svg>
