<svg width="80" height="80" viewBox="0 0 80 80" fill="none" xmlns="http://www.w3.org/2000/svg">
<g clip-path="url(#clip0_8170_262)">
<path d="M25.3377 61.87C25.3377 61.87 21.2577 63.65 28.24 64.25C30.7955 64.5333 33.7466 64.6967 36.7422 64.6967C41.56 64.6967 46.2444 64.28 50.7378 63.4867L50.3244 63.5467C51.9866 64.3067 53.92 65.03 55.9333 65.6267L56.1955 65.6933C35.3155 72.4067 8.93775 65.3033 25.3422 61.8667L25.3377 61.87ZM22.7866 53.11C22.7866 53.11 18.2133 55.65 25.1955 56.19C28.2489 56.4767 31.7822 56.6433 35.3689 56.6433C41.8622 56.6433 48.1866 56.1033 54.2666 55.0833L53.6933 55.1633C54.9155 56.0233 56.3777 56.7067 57.9955 57.15L58.0844 57.17C32.84 62.7067 4.71552 57.6067 22.7866 53.11ZM44.2933 38.25C49.44 42.6933 42.9422 46.69 42.9422 46.69C42.9422 46.69 56.0044 41.6233 50.0089 35.2967C44.4044 29.39 40.1066 26.4533 63.3689 16.3367C63.3689 16.3367 26.8533 23.1767 44.2933 38.25Z" fill="white"/>
<path d="M71.911 68.3499C71.911 68.3499 74.9243 70.2166 68.591 71.6566C56.5376 74.3966 18.4265 75.2232 7.83541 71.7666C4.03097 70.5232 11.1687 68.7999 13.4087 68.4399C14.4399 68.2432 15.6265 68.1299 16.8487 68.1299H17.1021H17.0887C12.8576 65.8932 -10.2668 72.5232 5.35541 74.4166C47.9287 79.5966 82.9643 72.0832 71.9243 68.3499H71.911ZM27.2976 44.0332C27.2976 44.0332 7.91097 47.4866 20.431 48.7399C23.8043 48.9499 27.7376 49.0666 31.7021 49.0666C36.7643 49.0666 41.7643 48.8732 46.6887 48.4966L46.071 48.5366C54.0932 48.0299 62.151 46.9366 62.151 46.9366C60.2621 47.5566 58.6621 48.2099 57.1465 48.9532L57.2754 48.8932C37.5865 52.7766 -0.440143 50.9699 10.5065 46.9966C15.3332 45.1199 21.0487 44.0199 27.1021 44.0199H27.3065H27.2976V44.0332ZM62.071 58.6166C82.0799 50.8166 72.831 43.3232 66.3687 44.3299C65.4843 44.4532 64.7154 44.6132 63.9732 44.8166L64.0754 44.7932C64.4976 44.3466 65.0799 44.0032 65.7599 43.8099L65.7865 43.8032C78.5599 40.4366 88.391 53.7399 61.6621 59.0032C61.8265 58.8932 61.9599 58.7632 62.0576 58.6199L62.0621 58.6132L62.071 58.6166ZM50.0087 -8.46353e-05C50.0087 -8.46353e-05 61.0932 8.31325 39.4932 21.0999C22.1776 31.3566 35.5421 37.2032 39.4932 43.8866C29.3865 37.0466 21.9687 31.0266 26.9421 25.4199C34.2487 17.1932 54.4843 13.2066 50.0087 -0.00341797V-8.46353e-05Z" fill="white"/>
<path d="M29.2666 79.75C48.4666 80.6733 77.9777 79.2367 78.6888 72.4233C78.6888 72.4233 77.3466 75.0067 62.8133 77.06C54.7866 78.1467 45.5466 78.7667 36.1111 78.7667C28.3822 78.7667 20.7866 78.35 13.3511 77.5467L14.2 77.6233C14.2 77.6233 16.6577 79.15 29.28 79.7567L29.2666 79.75Z" fill="white"/>
</g>
<defs>
<clipPath id="clip0_8170_262">
<rect width="80" height="80" fill="white"/>
</clipPath>
</defs>
</svg>
