<svg width="80" height="80" viewBox="0 0 80 80" fill="none" xmlns="http://www.w3.org/2000/svg">
<g clip-path="url(#clip0_8170_248)">
<path d="M79.6899 47.9C79.2102 46.4913 77.9536 45.5102 76.3286 45.2748C75.5624 45.1639 74.6849 45.2112 73.6464 45.4187C71.8364 45.7808 70.4936 45.9187 69.5136 45.9453C73.2127 39.8899 76.2205 32.9845 77.9521 26.4842C80.7521 15.9735 79.2558 11.1852 77.5074 9.01932C72.8802 3.28656 66.1293 0.206866 57.9849 0.112633C53.6402 0.0611231 49.8261 0.892858 47.8364 1.49098C45.9839 1.17404 43.9921 0.99709 41.9021 0.964366C37.9843 0.903766 34.5227 1.73187 31.5649 3.43382C29.9274 2.8969 27.2993 2.14001 24.2643 1.65702C17.1261 0.520774 11.373 1.40614 7.16488 4.28858C2.06926 7.77853 -0.29293 13.8422 0.143945 22.311C0.282695 24.9998 1.83395 33.1808 4.27644 40.9395C5.68019 45.399 7.17707 49.1023 8.72551 51.9474C10.9214 55.9819 13.2711 58.3577 15.9089 59.211C17.3874 59.6885 20.0736 60.023 22.8989 57.7414C23.2571 58.162 23.7349 58.5798 24.3689 58.968C25.1743 59.4603 26.1589 59.8627 27.1424 60.1012C30.6864 60.9602 34.0061 60.7454 36.8383 59.5412C36.8558 60.0297 36.8693 60.4963 36.8805 60.8993C36.8993 61.5529 36.918 62.1937 36.9427 62.793C37.1105 66.8454 37.3949 69.9963 38.2374 72.2009C38.2836 72.3221 38.3458 72.5069 38.4114 72.7029C38.8318 73.9507 39.5346 76.0396 41.3227 77.6755C43.1743 79.3702 45.4139 79.8898 47.4652 79.8898C48.4939 79.8898 49.4755 79.7589 50.3364 79.5801C53.4052 78.9423 56.8905 77.9709 59.4117 74.49C61.7955 71.1995 62.9542 66.2433 63.1639 58.4341C63.1911 58.2132 63.2161 58.0023 63.2402 57.8014L63.2902 57.3887L63.8518 57.4366L63.9964 57.446C67.1221 57.5842 70.9439 56.9415 73.2911 55.8843C75.1458 55.0499 81.0892 52.0074 79.6899 47.9Z" fill="url(#paint0_linear_8170_248)"/>
<path d="M74.3455 48.6989C65.0518 50.5578 64.4127 47.5069 64.4127 47.5069C74.2252 33.3892 78.3274 15.4689 74.7877 11.0829C65.1302 -0.881008 48.413 4.77721 48.1339 4.92387L48.0443 4.93962C46.208 4.56996 44.1533 4.34998 41.8436 4.31332C37.6386 4.24666 34.4486 5.38231 32.028 7.16213C32.028 7.16213 2.20614 -4.75002 3.59332 22.1437C3.88832 27.8649 12.0508 65.4342 21.7864 54.0865C25.3449 49.9369 28.7833 46.4285 28.7833 46.4285C30.4908 47.5284 32.5352 48.0896 34.6783 47.8881L34.8449 47.7511C34.793 48.2662 34.8168 48.7701 34.9114 49.3667C32.4033 52.0837 33.1405 52.5606 28.1268 53.5614C23.0533 54.5753 26.0336 56.3799 27.9796 56.852C30.3386 57.4238 35.7961 58.234 39.4836 53.2287L39.3368 53.7999C40.3193 54.5631 41.0093 58.7639 40.8936 62.5723C40.778 66.3805 40.7008 68.995 41.4749 71.0373C42.2496 73.0795 43.0211 77.6745 49.6124 76.3052C55.1196 75.1608 57.9736 72.1953 58.3708 67.2485C58.6524 63.7319 59.2902 64.2519 59.3302 61.1076L59.8418 59.6193C60.4314 54.8522 59.9355 53.3142 63.3283 54.0296L64.1533 54.0999C66.6502 54.2098 69.9189 53.7102 71.8374 52.8457C75.968 50.9871 78.418 47.8835 74.3449 48.6989H74.3455Z" fill="url(#paint1_linear_8170_248)"/>
<path d="M33.7738 24.7021C32.9363 24.5891 32.1779 24.6936 31.7942 24.9754C31.5785 25.1339 31.5117 25.3175 31.4935 25.4438C31.4454 25.7786 31.6873 26.1489 31.836 26.3398C32.2567 26.8804 32.871 27.2518 33.4792 27.3336C33.5673 27.3458 33.6551 27.3512 33.7423 27.3512C34.7563 27.3512 35.6785 26.5855 35.7598 26.0204C35.8613 25.3126 34.8017 24.8406 33.7738 24.7021ZM61.5188 24.7245C61.4388 24.1697 60.4207 24.0116 59.4545 24.1418C58.4895 24.2721 57.5538 24.6945 57.632 25.2505C57.6945 25.6829 58.4998 26.421 59.4529 26.421C59.5335 26.421 59.6148 26.4159 59.6967 26.4046C60.3329 26.3192 60.7998 25.9274 61.0217 25.7017C61.3592 25.3575 61.5548 24.9739 61.5188 24.7245Z" fill="white"/>
<path d="M77.4381 48.4875C77.0837 47.4485 75.9431 47.1143 74.0481 47.4937C68.4215 48.6196 66.4066 47.8397 65.745 47.3673C70.1184 40.9074 73.7162 33.0984 75.6572 25.8128C76.5765 22.3616 77.0844 19.1565 77.1259 16.544C77.1719 13.6768 76.6681 11.5697 75.6294 10.2825C71.4412 5.09367 65.2944 2.31031 57.8537 2.23396C52.7384 2.17821 48.4165 3.44747 47.5787 3.80441C45.8144 3.379 43.8909 3.11781 41.7969 3.08448C37.9569 3.02418 34.6375 3.91561 31.8894 5.7327C30.6956 5.30183 27.6106 4.27497 23.8378 3.68563C17.3153 2.66755 12.1322 3.43899 8.43342 5.97964C4.01998 9.01146 1.98248 14.4309 2.37717 22.0871C2.50998 24.6629 4.02373 32.587 6.41248 40.1756C9.55686 50.1637 12.975 55.818 16.5712 56.9812C16.9922 57.1173 17.4775 57.2124 18.0128 57.2124C19.3247 57.2124 20.9331 56.6391 22.6065 54.6884C24.6477 52.3143 26.7591 49.9978 28.9381 47.7418C30.3519 48.4775 31.905 48.8884 33.4934 48.9296C33.4965 48.9699 33.5006 49.0102 33.5044 49.0502C33.2309 49.3663 32.9632 49.6871 32.7012 50.0122C31.6006 51.3669 31.3715 51.649 27.8287 52.3562C26.8209 52.558 24.1444 53.0928 24.105 54.912C24.0625 56.8997 27.269 57.7345 27.6344 57.8229C28.9075 58.132 30.134 58.2844 31.3037 58.2844C34.1484 58.2844 36.6519 57.3778 38.6525 55.6238C38.5909 62.7097 38.8956 69.6921 39.7731 71.8194C40.4919 73.5611 42.2475 77.8173 47.7931 77.817C48.6069 77.817 49.5025 77.7252 50.4878 77.5204C56.2756 76.3175 58.789 73.8371 59.7612 68.3689C60.2815 65.4464 61.1744 58.468 61.5944 54.7248C62.4806 54.9929 63.6215 55.1156 64.855 55.1153C67.4275 55.1153 70.3959 54.5854 72.2575 53.7476C74.3487 52.8059 78.1225 50.4952 77.4381 48.4875ZM63.655 23.1931C63.6359 24.2981 63.479 25.3013 63.3128 26.3485C63.1337 27.4748 62.9487 28.6392 62.9022 30.0527C62.8562 31.4283 63.0334 32.8585 63.2047 34.2417C63.5509 37.0353 63.9062 39.9114 62.5309 42.7493C62.3025 42.3568 62.099 41.9511 61.9215 41.5346C61.7506 41.1328 61.3794 40.4874 60.8653 39.5942C58.8656 36.1169 54.1828 27.9741 56.58 24.6514C57.294 23.6624 59.1062 22.6456 63.655 23.1931ZM58.1412 4.47161C64.8081 4.61433 70.0819 7.03257 73.8156 11.6588C76.6794 15.2072 73.5259 31.3532 64.3969 45.2824C64.3051 45.1692 64.2128 45.0564 64.12 44.9439L64.0044 44.8039C66.3634 41.0264 65.9022 37.2889 65.4915 33.9753C65.3228 32.6155 65.1634 31.331 65.204 30.1245C65.2459 28.8458 65.4203 27.749 65.589 26.6885C65.7962 25.3816 66.0072 24.0294 65.9491 22.4353C65.9925 22.268 66.01 22.0705 65.9872 21.8359C65.8387 20.3073 64.0387 15.7323 60.37 11.5915C58.3631 9.32658 55.4365 6.79199 51.4406 5.08246C53.1594 4.73704 55.5097 4.41495 58.1412 4.47161ZM20.8356 53.2607C18.9919 55.4102 17.7187 54.9981 17.3 54.8629C14.5719 53.9806 11.4062 48.3896 8.61529 39.5239C6.20029 31.8525 4.78904 24.1384 4.67717 21.9753C4.32467 15.1342 6.03498 10.3665 9.76092 7.80431C15.8247 3.63503 25.794 6.13054 29.8 7.39617C29.7425 7.45132 29.6825 7.50283 29.6256 7.55888C23.0519 13.9958 23.2078 24.9935 23.224 25.6659C23.2234 25.9252 23.2459 26.2925 23.2765 26.7976C23.3897 28.6474 23.6003 32.0901 23.0378 35.9888C22.5153 39.6117 23.6672 43.1577 26.1975 45.7178C26.4572 45.98 26.7301 46.2296 27.0153 46.4656C25.889 47.6352 23.4412 50.2216 20.8356 53.2607ZM27.8603 44.1728C25.8209 42.1094 24.8947 39.2393 25.3187 36.2978C25.9125 32.1794 25.6934 28.5925 25.5756 26.6655C25.559 26.3958 25.5444 26.1594 25.5359 25.9731C26.4962 25.1474 30.9465 22.8355 34.1203 23.5406C35.5684 23.8621 36.4509 24.8184 36.8178 26.463C38.7165 34.9783 37.069 38.5273 35.7453 41.3794C35.4725 41.967 35.2147 42.5224 34.9947 43.0968L34.824 43.541C34.3922 44.664 33.9903 45.7081 33.7412 46.6995C31.5731 46.6934 29.464 45.7954 27.8603 44.1725V44.1728ZM28.1931 55.6565C27.56 55.5032 26.9906 55.2368 26.6565 55.016C26.9356 54.8887 27.4322 54.7154 28.2934 54.5433C32.4612 53.7115 33.105 53.1243 34.5106 51.3939C34.8328 50.997 35.1981 50.5473 35.704 49.9995L35.7047 49.9989C36.4581 49.1808 36.8028 49.3196 37.4278 49.571C37.9344 49.7741 38.4278 50.3897 38.6278 51.0673C38.7225 51.3872 38.8287 51.9944 38.4809 52.4671C35.5447 56.4534 31.2659 56.4022 28.1931 55.6565ZM50.0053 75.3369C44.9065 76.3962 43.1012 73.8738 41.9115 70.9901C41.1437 69.1285 40.7662 60.7336 41.034 51.4627C41.0375 51.3393 41.0194 51.2203 40.9844 51.1082C40.953 50.8868 40.9054 50.6679 40.8419 50.4531C40.4437 49.1041 39.4734 47.9757 38.3094 47.5079C37.8469 47.3222 36.9981 46.9813 35.9781 47.2343C36.1956 46.3653 36.5728 45.3839 36.9819 44.3213L37.1534 43.8743C37.3465 43.3705 37.589 42.8484 37.8453 42.2957C39.2306 39.3118 41.1278 35.2246 39.0687 25.9913C38.2975 22.5328 35.7219 20.8439 31.8175 21.2363C29.4769 21.4711 27.3353 22.3868 26.2672 22.9119C26.0375 23.0246 25.8275 23.1337 25.6312 23.2397C25.9294 19.7552 27.0556 13.2432 31.2687 9.12297C33.9215 6.52929 37.4544 5.2482 41.7587 5.31729C50.24 5.45182 55.6787 9.672 58.7481 13.1889C61.3931 16.2192 62.8253 19.272 63.3969 20.9185C59.0984 20.4946 56.175 21.3172 54.6931 23.3715C51.469 27.8402 56.4569 36.5133 58.854 40.6816C59.2937 41.4455 59.6731 42.1057 59.7925 42.3863C60.5731 44.2207 61.5837 45.4454 62.3215 46.3392C62.5478 46.6132 62.7672 46.8789 62.9341 47.111C61.6322 47.4749 59.2937 48.3157 59.5069 52.5186C59.335 54.6275 58.1128 64.5011 57.4919 67.9895C56.6722 72.5981 54.9231 74.3146 50.0053 75.3373V75.3369ZM71.2878 51.7223C69.9566 52.3214 67.7287 52.7707 65.6125 52.8674C63.275 52.9734 62.085 52.6135 61.805 52.392C61.6737 49.7728 62.679 49.4992 63.7431 49.2096C63.9103 49.1641 64.0734 49.1196 64.2309 49.0662C64.3287 49.1435 64.4359 49.2202 64.5534 49.2953C66.4322 50.4976 69.7831 50.6273 74.5141 49.6804L74.5659 49.6704C73.9278 50.2489 72.8359 51.0251 71.2878 51.7223Z" fill="white"/>
</g>
<defs>
<linearGradient id="paint0_linear_8170_248" x1="79.9011" y1="40.0001" x2="0.0927734" y2="40.0001" gradientUnits="userSpaceOnUse">
<stop stop-color="#5473ED"/>
<stop offset="1" stop-color="#54BFED"/>
</linearGradient>
<linearGradient id="paint1_linear_8170_248" x1="76.4336" y1="40.0079" x2="3.54639" y2="40.0079" gradientUnits="userSpaceOnUse">
<stop stop-color="#5473ED"/>
<stop offset="1" stop-color="#54BFED"/>
</linearGradient>
<clipPath id="clip0_8170_248">
<rect width="80" height="80" fill="white"/>
</clipPath>
</defs>
</svg>
