<svg width="80" height="80" viewBox="0 0 80 80" fill="none" xmlns="http://www.w3.org/2000/svg">
<path d="M65.3438 27.6875C64.5 27.4062 63.6563 27.1406 62.8125 26.8906C62.9531 26.3125 63.0781 25.7344 63.2031 25.1562C65.125 15.8437 63.8594 8.35937 59.5937 5.89062C55.4844 3.53125 48.7812 5.98437 42 11.8906C41.3281 12.4687 40.6719 13.0781 40.0469 13.6875C39.625 13.2812 39.1875 12.875 38.75 12.4844C31.6406 6.17187 24.5156 3.51562 20.25 6C16.1563 8.375 14.9375 15.4219 16.6562 24.2344C16.8281 25.1094 17.0156 25.9687 17.2344 26.8437C16.2344 27.125 15.25 27.4375 14.3281 27.7656C5.98437 30.6562 0 35.2187 0 39.9375C0 44.8125 6.375 49.7031 15.0469 52.6719C15.75 52.9062 16.4531 53.1406 17.1719 53.3437C16.9375 54.2812 16.7344 55.2031 16.5469 56.1562C14.9063 64.8281 16.1875 71.7031 20.2813 74.0625C24.5 76.5 31.5937 74 38.5 67.9531C39.0469 67.4687 39.5937 66.9688 40.1406 66.4375C40.8281 67.1094 41.5469 67.75 42.2656 68.375C48.9531 74.125 55.5625 76.4531 59.6406 74.0938C63.8594 71.6562 65.2344 64.2656 63.4531 55.2656C63.3125 54.5781 63.1563 53.875 62.9844 53.1562C63.4844 53.0156 63.9688 52.8594 64.4531 52.7031C73.4688 49.7187 80 44.8906 80 39.9375C80 35.2031 73.8438 30.6094 65.3438 27.6875ZM44.2031 14.4219C50.0156 9.35937 55.4375 7.375 57.9063 8.79687C60.5469 10.3125 61.5625 16.4375 59.9062 24.4844C59.7969 25.0156 59.6875 25.5312 59.5469 26.0469C56.0781 25.2656 52.5625 24.7031 49.0312 24.3906C47 21.4844 44.7813 18.7031 42.375 16.0937C42.9844 15.5156 43.5781 14.9687 44.2031 14.4219ZM26.125 48.0469C26.9219 49.4062 27.7344 50.7656 28.5938 52.0937C26.1562 51.8281 23.7344 51.4375 21.3438 50.9219C22.0313 48.6719 22.8906 46.3437 23.8906 43.9687C24.6094 45.3437 25.3437 46.7031 26.125 48.0469ZM21.3906 29.25C23.6406 28.75 26.0313 28.3437 28.5156 28.0312C27.6875 29.3281 26.875 30.6562 26.1094 32C25.3438 33.3281 24.5937 34.6875 23.8906 36.0625C22.9062 33.7344 22.0781 31.4531 21.3906 29.25ZM25.6719 40.0156C26.7031 37.8594 27.8281 35.75 29.0156 33.6719C30.2031 31.5937 31.4844 29.5781 32.8281 27.5937C35.1719 27.4219 37.5625 27.3281 40 27.3281C42.4375 27.3281 44.8437 27.4219 47.1719 27.5937C48.5 29.5625 49.7656 31.5781 50.9688 33.6406C52.1719 35.7031 53.2969 37.8125 54.3594 39.9531C53.3125 42.1094 52.1875 44.2344 50.9844 46.3281C49.7969 48.4062 48.5313 50.4219 47.2031 52.4219C44.875 52.5937 42.4531 52.6719 40 52.6719C37.5469 52.6719 35.1719 52.5937 32.875 52.4531C31.5156 50.4688 30.2344 48.4375 29.0313 46.3594C27.8281 44.2812 26.7188 42.1719 25.6719 40.0156ZM53.8906 48.0156C54.6875 46.6406 55.4375 45.25 56.1719 43.8437C57.1719 46.1094 58.0469 48.4062 58.8125 50.7656C56.3906 51.3125 53.9375 51.7344 51.4687 52.0156C52.3125 50.7031 53.1094 49.3594 53.8906 48.0156ZM56.1406 36.0625C55.4062 34.6875 54.6562 33.3125 53.875 31.9687C53.1094 30.6406 52.3125 29.3281 51.4844 28.0312C54 28.3437 56.4062 28.7656 58.6562 29.2812C57.9375 31.5937 57.0937 33.8437 56.1406 36.0625ZM40.0313 18.4844C41.6719 20.2656 43.2187 22.1406 44.6562 24.0781C41.5625 23.9375 38.4531 23.9375 35.3594 24.0781C36.8906 22.0625 38.4688 20.1875 40.0313 18.4844ZM21.9062 8.90625C24.5312 7.375 30.3594 9.5625 36.5 15C36.8906 15.3437 37.2812 15.7187 37.6875 16.0937C35.2656 18.7031 33.0313 21.4844 30.9844 24.3906C27.4531 24.7031 23.9531 25.25 20.4844 26.0156C20.2813 25.2187 20.1094 24.4062 19.9375 23.5937C18.4687 16.0312 19.4375 10.3281 21.9062 8.90625ZM18.0781 50.0937C17.4219 49.9062 16.7813 49.7031 16.1406 49.4844C12.8125 48.4375 9.03125 46.7812 6.29687 44.6094C4.71875 43.5156 3.65625 41.8281 3.35938 39.9375C3.35938 37.0781 8.29687 33.4219 15.4219 30.9375C16.3125 30.625 17.2187 30.3437 18.125 30.0781C19.1875 33.4687 20.4688 36.7969 21.9531 40.0156C20.4531 43.2812 19.1562 46.6562 18.0781 50.0937ZM36.2969 65.4062C33.7188 67.7656 30.7344 69.6406 27.4844 70.9219C25.75 71.75 23.75 71.8281 21.9688 71.125C19.4844 69.6875 18.4531 64.1719 19.8594 56.75C20.0312 55.875 20.2188 55 20.4375 54.1406C23.9375 54.8906 27.4687 55.4062 31.0469 55.6719C33.1094 58.5937 35.375 61.3906 37.7969 64.0156C37.2969 64.5 36.7969 64.9687 36.2969 65.4062ZM40.125 61.6094C38.5312 59.8906 36.9375 57.9844 35.3906 55.9375C36.8906 56 38.4375 56.0312 40 56.0312C41.6094 56.0312 43.1875 56 44.75 55.9219C43.3125 57.9062 41.7656 59.7969 40.125 61.6094ZM60.5469 66.2969C60.4063 68.2031 59.4688 69.9844 57.9688 71.1875C55.4844 72.625 50.1875 70.75 44.4688 65.8437C43.8125 65.2812 43.1562 64.6719 42.4844 64.0469C44.875 61.4062 47.0781 58.6094 49.0781 55.6719C52.6563 55.375 56.2187 54.8281 59.7344 54.0312C59.8906 54.6719 60.0312 55.3125 60.1562 55.9375C60.9219 59.3125 61.0469 62.8281 60.5469 66.2969ZM63.3906 49.5C62.9531 49.6406 62.5156 49.7812 62.0625 49.9062C60.9688 46.5 59.625 43.1719 58.0781 39.9375C59.5781 36.75 60.8438 33.4687 61.9063 30.1094C62.7188 30.3437 63.5 30.5937 64.25 30.8437C71.5313 33.3437 76.6406 37.0625 76.6406 39.9062C76.6406 42.9687 71.1875 46.9219 63.3906 49.5ZM40 47.1562C43.9531 47.1562 47.1562 43.9531 47.1562 40C47.1562 36.0469 43.9531 32.8437 40 32.8437C36.0469 32.8437 32.8437 36.0469 32.8437 40C32.8437 43.9531 36.0469 47.1562 40 47.1562Z" fill="white"/>
</svg>
